<svg id="Layer_2" data-name="Layer 2" xmlns="http://www.w3.org/2000/svg" viewBox="0 0 128 128"><defs><style>.cls-1{fill:#fff;opacity:0.5;}.cls-2{font-size:11.66px;font-family:Averta-Regular, Averta-Regular;}.cls-2,.cls-4{fill:#fbaf17;}.cls-3{letter-spacing:0em;}</style></defs><title>icon 4 2</title><rect class="cls-1" x="6.44" y="19.29" width="89.41" height="89.41" rx="6.93" ry="6.93"/><text class="cls-2" transform="translate(74.5 33.44)">BRAN<tspan class="cls-3" x="31.77" y="0">D</tspan><tspan x="40.24" y="0">S</tspan><tspan x="1.89" y="14">DESIGN</tspan></text><path class="cls-4" d="M41.29,71.23a.76.76,0,0,0,.28,1l4.49,2.59a.76.76,0,0,0,.76-1.32l-4.49-2.59a.76.76,0,0,0-1,.28Zm0,0"/><path class="cls-4" d="M52,69.48a.76.76,0,0,0,1-.28.76.76,0,0,0-.28-1l-6.61-3.81a.76.76,0,0,0-.76,1.32Zm0,0"/><path class="cls-4" d="M38.6,79.36A.76.76,0,0,0,39.36,78l-.84-.48a.76.76,0,1,0-.76,1.32Zm0,0"/><path class="cls-4" d="M51.06,77.65a.76.76,0,0,0-.28,1l2.59,4.49a.76.76,0,0,0,1.32-.76l-2.59-4.49a.76.76,0,0,0-1-.28Zm0,0"/><path class="cls-4" d="M36.91,83.18a.76.76,0,0,0,1,.28L60.87,70.22a2.29,2.29,0,0,1,3.12.84l3.81,6.61A2.29,2.29,0,0,1,67,80.79l-2.6,1.5a.76.76,0,0,0,.38,1.42.76.76,0,0,0,.38-.1l2.6-1.5a3.81,3.81,0,0,0,1.39-5.21L65.32,70.3a3.81,3.81,0,0,0-5.21-1.4L37.18,82.14a.76.76,0,0,0-.28,1Zm0,0"/><path class="cls-4" d="M58.71,74.11a.76.76,0,0,0-1.32.76l3.81,6.61a.76.76,0,0,0,1.32-.76Zm0,0"/><path class="cls-4" d="M44.37,81.29a.76.76,0,0,0-.28,1l.49.84a.76.76,0,0,0,1.32-.76l-.49-.85a.76.76,0,0,0-1-.28Zm0,0"/><path class="cls-4" d="M31.59,83.46a.76.76,0,0,0,1-.28L46.08,59.89a2.29,2.29,0,0,1,3.12-.84l6.61,3.81a2.27,2.27,0,0,1,1.07,1.39,2.33,2.33,0,0,1-.26,1.8l-1,2a.76.76,0,0,0,1.38.65l.93-2a3.81,3.81,0,0,0-1.4-5.21L50,57.74a3.81,3.81,0,0,0-5.21,1.4L31.31,82.42a.76.76,0,0,0,.28,1Zm0,0"/><path class="cls-4" d="M30.38,78.94h.76a.76.76,0,0,0,0-1.53h-.76a.76.76,0,0,0,0,1.53Zm0,0"/><path class="cls-4" d="M64.71,96.48V88.86a.76.76,0,0,0-1.53,0v7.63a.76.76,0,1,0,1.53,0Zm0,0"/><path class="cls-4" d="M57.08,96.48V88.86a.76.76,0,0,0-1.53,0v7.63a.76.76,0,1,0,1.53,0Zm0,0"/><path class="cls-4" d="M49.45,96.48V88.86a.76.76,0,0,0-1.53,0v7.63a.76.76,0,1,0,1.53,0Zm0,0"/><path class="cls-4" d="M31.91,92.67a2.29,2.29,0,1,0,2.29-2.29,2.29,2.29,0,0,0-2.29,2.29Zm3.05,0a.76.76,0,1,1-.76-.76.76.76,0,0,1,.76.76Zm0,0"/><path class="cls-4" d="M30.38,63.69H38a.76.76,0,0,0,0-1.53H30.38a.76.76,0,0,0,0,1.53Zm0,0"/><path class="cls-4" d="M68.52,85H30.38a3.82,3.82,0,0,0-3.81,3.81v7.63a3.82,3.82,0,0,0,3.81,3.81H41.06a.76.76,0,0,0,.76-.76V88.86a.76.76,0,0,0-1.53,0v9.92H30.38a2.29,2.29,0,0,1-2.29-2.29V88.86a2.29,2.29,0,0,1,2.29-2.29H68.52a2.29,2.29,0,0,1,2.29,2.29v7.63a2.29,2.29,0,0,1-2.29,2.29H44.11a.76.76,0,0,0,0,1.53H68.52a3.82,3.82,0,0,0,3.81-3.81V88.86A3.82,3.82,0,0,0,68.52,85Zm0,0"/><path class="cls-4" d="M30.38,71.31h5.34a.76.76,0,0,0,0-1.53H30.38a.76.76,0,0,0,0,1.53Zm0,0"/><path class="cls-4" d="M27.33,85a.76.76,0,0,0,.76-.76V58.35a2.29,2.29,0,0,1,2.29-2.29H38a2.29,2.29,0,0,1,2.29,2.29v2.29a.76.76,0,0,0,1.53,0V58.35A3.81,3.81,0,0,0,38,54.53H30.38a3.81,3.81,0,0,0-3.81,3.81V84.28a.76.76,0,0,0,.76.76Zm0,0"/></svg>