<svg id="Layer_2" data-name="Layer 2" xmlns="http://www.w3.org/2000/svg" viewBox="0 0 128 128"><defs><style>.cls-1{fill:#fff;opacity:0.5;}.cls-2{font-size:11.66px;font-family:Averta-Regular, Averta-Regular;}.cls-2,.cls-3{fill:#fbaf17;}</style></defs><title>icon 4 2</title><rect class="cls-1" x="7.39" y="19.29" width="89.41" height="89.41" rx="6.93" ry="6.93"/><text class="cls-2" transform="translate(90.8 33.44)">CV<tspan x="-13.46" y="14">DESIGN</tspan></text><path class="cls-3" d="M47.11,66.57a3.42,3.42,0,1,0-3.42-3.42,3.42,3.42,0,0,0,3.42,3.42Zm0-5.2a1.78,1.78,0,1,1-1.77,1.78,1.78,1.78,0,0,1,1.77-1.78Zm0,0"/><path class="cls-3" d="M43.28,72.81a.82.82,0,0,0,.82-.82V70.54a1.69,1.69,0,0,1,1.69-1.69h2.63a1.69,1.69,0,0,1,1.69,1.69V72a.82.82,0,1,0,1.64,0V70.54a3.34,3.34,0,0,0-3.34-3.34H45.8a3.34,3.34,0,0,0-3.34,3.34V72a.82.82,0,0,0,.82.82Zm0,0"/><path class="cls-3" d="M42.46,78.61a.82.82,0,0,0,.82.82H61.91a.82.82,0,1,0,0-1.64H43.28a.82.82,0,0,0-.82.82Zm0,0"/><path class="cls-3" d="M61.91,90H43.28a.82.82,0,0,0,0,1.64H61.91a.82.82,0,0,0,0-1.64Zm0,0"/><path class="cls-3" d="M61.91,83.87H43.28a.82.82,0,0,0,0,1.64H61.91a.82.82,0,0,0,0-1.64Zm0,0"/><path class="cls-3" d="M70.11,66.76v-.08l0-.07h0l0-.07h0l0-.06h0l0-.05v0l0,0v0l0-.05h0l-11-11-.06-.05h0l-.05,0h0l-.06,0h0l-.06,0h0l-.07,0h0l-.08,0H35.91a.82.82,0,0,0-.82.82V98.8a.82.82,0,0,0,.82.82H69.29a.82.82,0,0,0,.82-.82v-32h0a.7.7,0,0,0,0-.08ZM67.3,66H59.15V57.86Zm1.16,32H36.73V56.7H57.5V66.84a.82.82,0,0,0,.82.82H68.47Zm0,0"/></svg>