<svg id="Layer_2" data-name="Layer 2" xmlns="http://www.w3.org/2000/svg" viewBox="0 0 128 128"><defs><style>.cls-1{fill:#fff;opacity:0.5;}.cls-2{font-size:11.66px;font-family:Averta-Regular, Averta-Regular;}.cls-2,.cls-7{fill:#fbaf17;}.cls-3{letter-spacing:0em;}.cls-4{letter-spacing:0em;}.cls-5{letter-spacing:-0.07em;}.cls-6{letter-spacing:-0.02em;}</style></defs><title>icon 4 2</title><rect class="cls-1" x="3.46" y="19.29" width="89.41" height="89.41" rx="6.93" ry="6.93"/><text class="cls-2" transform="translate(67.58 33.44)">C<tspan class="cls-3" x="8.49" y="0">R</tspan><tspan class="cls-4" x="16" y="0">E</tspan><tspan class="cls-5" x="22.97" y="0">A</tspan><tspan x="30.15" y="0">TIVE</tspan><tspan x="-4.02" y="14">P</tspan><tspan class="cls-6" x="3.19" y="14">R</tspan><tspan x="10.45" y="14">ODUCTS</tspan></text><path class="cls-7" d="M58,92.56h2a.82.82,0,0,0,0-1.65H41.89a.82.82,0,0,0,0,1.65h2l-4.34,8.69A.82.82,0,1,0,41,102l4.71-9.42h4.43v9.05a.82.82,0,1,0,1.65,0V92.56h4.43L60.91,102a.82.82,0,1,0,1.47-.74Zm0,0"/><path class="cls-7" d="M45.18,58H56.7a.82.82,0,0,0,0-1.65H51.76V53.87a.82.82,0,0,0-1.65,0v2.47H45.18a.82.82,0,1,0,0,1.65Zm0,0"/><path class="cls-7" d="M66.58,59.63H35.3a4.12,4.12,0,0,0-4.12,4.12V81a.82.82,0,1,0,1.65,0V63.75a2.47,2.47,0,0,1,2.47-2.47H66.58a2.47,2.47,0,0,1,2.47,2.47v21.4a2.47,2.47,0,0,1-2.47,2.47H35.3a2.47,2.47,0,0,1-2.45-2.14c5.38-4.93,15.22-1.25,15.32-1.21a.82.82,0,0,0,1-.28s2.28-3,7.57-3a16.55,16.55,0,0,1,9.37,3.11.82.82,0,0,0,1-1.29,18,18,0,0,0-9.57-3.44V77.64A3.16,3.16,0,0,0,60,74.45c0-1.93-.24-8.23-3.29-8.23s-3.29,6.86-3.29,8.23a3.16,3.16,0,0,0,2.47,3.19v1.77a11.4,11.4,0,0,0-7.65,3.13c-2.33-.78-11.42-3.35-16.8,2a.82.82,0,0,0-.24.58,4.12,4.12,0,0,0,4.12,4.12H66.58a4.12,4.12,0,0,0,4.12-4.12V63.75a4.12,4.12,0,0,0-4.12-4.12ZM55.06,74.45c0-4.08,1-6.59,1.65-6.59s1.65,2.35,1.65,6.59a1.65,1.65,0,1,1-3.29,0Zm0,0"/><path class="cls-7" d="M38.59,67.86a.82.82,0,1,0,0,1.65h1a2.26,2.26,0,0,0,.1.24l-.69.69a.82.82,0,1,0,1.16,1.16l.69-.69.24.1v1a.82.82,0,0,0,1.65,0V71l.23-.1.69.69a.82.82,0,0,0,1.17-1.16l-.69-.69c0-.08.07-.15.1-.23h1a.82.82,0,0,0,0-1.65h-1c0-.08-.06-.16-.1-.23l.69-.69a.82.82,0,1,0-1.16-1.16l-.69.69-.23-.1v-1a.82.82,0,0,0-.82-.82h0a.82.82,0,0,0-.82.82v1l-.23.1-.69-.69A.82.82,0,1,0,39,66.94l.69.69a2.47,2.47,0,0,0-.1.24Zm3.29,0a.82.82,0,1,1-.82.82.82.82,0,0,1,.82-.82Zm0,0"/></svg>