<svg id="Layer_2" data-name="Layer 2" xmlns="http://www.w3.org/2000/svg" viewBox="0 0 128 128"><defs><style>.cls-1{fill:#fff;opacity:0.5;}.cls-2{font-size:11.66px;font-family:Averta-Regular, Averta-Regular;}.cls-2,.cls-3{fill:#fbaf17;}</style></defs><title>icon 4 2</title><rect class="cls-1" x="7.39" y="19.29" width="89.41" height="89.41" rx="6.93" ry="6.93"/><text class="cls-2" transform="translate(85.79 33.44)">WEB<tspan x="-8.45" y="14">DESIGN</tspan></text><path class="cls-3" d="M49.29,87.3a.71.71,0,0,0-.71-.71h0a.71.71,0,1,0,.72.71Zm0,0"/><path class="cls-3" d="M64.89,96.53a.71.71,0,0,0,.71-.71V91.56a.71.71,0,0,0-.71-.71h-7.1a.71.71,0,0,0-.71.71v4.26a.71.71,0,0,0,1.42,0V92.27h5.68v3.55a.71.71,0,0,0,.71.71Zm0,0"/><path class="cls-3" d="M62.05,69.55a.71.71,0,1,0,0-1.42H59.21a.71.71,0,1,0,0,1.42Zm0,0"/><path class="cls-3" d="M55,96.53a.71.71,0,0,0,.71-.71V91.56a.71.71,0,0,0-.71-.71h-7.1a.71.71,0,0,0-.71.71v4.26a.71.71,0,0,0,1.42,0V92.27h5.68v3.55a.71.71,0,0,0,.71.71Zm0,0"/><path class="cls-3" d="M67.73,69.55a.71.71,0,1,0,0-1.42H64.89a.71.71,0,1,0,0,1.42Zm0,0"/><path class="cls-3" d="M69.15,56.78H33.66a3.55,3.55,0,0,0-3.55,3.55v4.26a.71.71,0,0,0,.71.71H69.15a.71.71,0,1,0,0-1.42H31.53V60.33a2.13,2.13,0,0,1,2.13-2.13H69.15a2.13,2.13,0,0,1,2.13,2.13V95.82a2.13,2.13,0,0,1-2.13,2.13H33.66a2.13,2.13,0,0,1-2.13-2.13V67.42a.71.71,0,0,0-1.42,0V95.82a3.55,3.55,0,0,0,3.55,3.55H69.15a3.55,3.55,0,0,0,3.55-3.55V60.33a3.55,3.55,0,0,0-3.55-3.55Zm0,0"/><path class="cls-3" d="M37.21,73.1V84.46a.71.71,0,0,0,.71.71H45a.71.71,0,0,0,.5-.21l5.18-5.18L53,82.12a.71.71,0,0,0,1,0l3.76-3.76,3.76,3.76a.71.71,0,0,0,1-1l-4.26-4.26a.71.71,0,0,0-1,0l-3.76,3.76-2.34-2.34a.71.71,0,0,0-1,0l-5.47,5.47H38.63V73.81H64.18v9.94H49.27a.71.71,0,1,0,0,1.42H64.89a.71.71,0,0,0,.71-.71V73.1a.71.71,0,0,0-.71-.71h-27a.71.71,0,0,0-.71.71Zm0,0"/><path class="cls-3" d="M56.37,69.55a.71.71,0,1,0,0-1.42H53.53a.71.71,0,1,0,0,1.42Zm0,0"/><path class="cls-3" d="M42.88,61a1.42,1.42,0,1,0,1.42-1.42A1.42,1.42,0,0,0,42.88,61Zm0,0"/><path class="cls-3" d="M45,96.53a.71.71,0,0,0,.71-.71V91.56a.71.71,0,0,0-.71-.71h-7.1a.71.71,0,0,0-.71.71v4.26a.71.71,0,0,0,1.42,0V92.27H44.3v3.55a.71.71,0,0,0,.71.71Zm0,0"/><path class="cls-3" d="M40.75,68.13H35.08a.71.71,0,0,0,0,1.42h5.68a.71.71,0,1,0,0-1.42Zm0,0"/><path class="cls-3" d="M38.63,61A1.42,1.42,0,1,0,40,59.62,1.42,1.42,0,0,0,38.63,61Zm0,0"/><path class="cls-3" d="M34.37,61a1.42,1.42,0,1,0,1.42-1.42A1.42,1.42,0,0,0,34.37,61Zm0,0"/><path class="cls-3" d="M55,87.3a.71.71,0,0,0-.71-.71h0a.71.71,0,1,0,.72.71Zm0,0"/><path class="cls-3" d="M52.13,87.3a.71.71,0,0,0-.71-.71h0a.71.71,0,1,0,.72.71Zm0,0"/><path class="cls-3" d="M41.46,77.36a2.13,2.13,0,1,0,2.13-2.13,2.13,2.13,0,0,0-2.13,2.13Zm2.84,0a.71.71,0,1,1-.71-.71.71.71,0,0,1,.71.71Zm0,0"/></svg>